<svg viewBox="0 0 1024 1024" xmlns="http://www.w3.org/2000/svg" id="b6183fbd-a647-4e4a-818f-339d9e23e749"><defs><style>.a8c8480d-3461-4da4-b2c7-6042015e500c{fill:none;}.bbf4dbdc-3336-4b97-aac1-6716d1f2eb3f{fill:#e61f19;opacity:0.2;}.a3801cfe-1047-4a55-8ac4-a83bb5be9f0b{fill:#040000;}.f431e451-f73a-4a39-bfa8-c9e210c33715{fill:#fff;}.bf8eb16d-9ce0-43c4-8052-b43ee4a0510a{fill:#fffdfd;}.b0dc9b45-cb09-419b-aa21-33af78313276{fill:#231815;}.b797210b-7cf1-4186-97b4-7b9c2ba3e86d{fill:#060001;}</style></defs><title>党建1024px尺寸</title><rect height="1024" width="1024" class="a8c8480d-3461-4da4-b2c7-6042015e500c"></rect><path d="M909.88,565c-11.24-15.82-20.81-30.25-29-43.51-23.73-10.52-51.49-4.38-51.86-4.3a6.4,6.4,0,1,1-2.88-12.47c1.44-.34,22.3-4.95,44.82,0-98.34-173.4,71.88-122.73-83.6-319C690.1,62.91,540,67,421.35,117.18a246,246,0,0,0,36.82,15.91,6.41,6.41,0,0,1-2,12.49,6.29,6.29,0,0,1-2-.33,269.35,269.35,0,0,1-45.82-20.68c-.54-.31-1-.63-1.57-.95-83.39,38.71-148.72,99.49-164.61,152.27-14.64,48.6-48.94,81.24-72.17,103.62-37,35.67-76,60.26-84.72,125.82-3.87,29.2-5.67,53.6-3.27,76.5,20.45,13,33.51.35,33.64.22a6.4,6.4,0,0,1,9,9.05c-4.3,4.31-13.16,9.42-24.67,9.42a42.41,42.41,0,0,1-15.66-3.1c12.53,63,62.23,120.2,196.7,245.58C521,1066.7,1085.09,811.5,909.88,565Z" class="bbf4dbdc-3336-4b97-aac1-6716d1f2eb3f"></path><path d="M693.06,394c8.9-12.67,23.69-20.38,39.32-19.4l5.39.72q10.68,1.5,7.38,17.15l-13.41-4a25.41,25.41,0,0,1,5.41-9c6.73-7.2,18.75-11.43,28.07-7.73,2.55,1,3.66-3.12,1.13-4.12-14.64-5.8-34.27,4.78-38.72,19.69-4.72,15.8,13.23,16.38,21.55,7,11.29-12.7-2.87-22.7-15.3-23.86-17.7-1.65-34.44,7-44.51,21.37-1.58,2.25,2.12,4.38,3.69,2.15Z" class="a3801cfe-1047-4a55-8ac4-a83bb5be9f0b"></path><path d="M746.53,365.86l12.8,12.8,12.8-8.53s64,46.93,89.6-12.8-38.4-93.87-76.8-72.54-20.68,69.46-20.68,69.46Z" class="f431e451-f73a-4a39-bfa8-c9e210c33715"></path><path d="M820.37,389.8c-21.89,0-43-13.45-48.27-17.09l-11.58,7.72a2.15,2.15,0,0,1-2.7-.26L745,367.37a2.15,2.15,0,0,1,.34-3.3l16.36-10.71c-2.69-8.78-13.3-50.73,22.17-70.43,20.94-11.64,49.76-7.76,68.55,9.19,18.13,16.36,22.23,40.43,11.25,66.05-7,16.22-17.35,26.33-30.92,30A46.85,46.85,0,0,1,820.37,389.8ZM772.13,368a2.15,2.15,0,0,1,1.26.41c.32.23,31.78,22.93,58.27,15.68,12.24-3.34,21.7-12.63,28.11-27.59,10.21-23.83,6.5-46.14-10.19-61.2-17.47-15.77-44.23-19.4-63.61-8.63-36.38,20.21-19.89,66.39-19.72,66.85a2.12,2.12,0,0,1-.83,2.52L749.89,366.2l9.71,9.71L771,368.35A2.12,2.12,0,0,1,772.13,368Z" class="a3801cfe-1047-4a55-8ac4-a83bb5be9f0b"></path><path d="M439.33,502.39c-29.87-4.26-105,37.83-146.57,95.49a15.78,15.78,0,0,0-1.05,16.94c7.73,13.85,26.29,40.95,61.69,61.46a15.64,15.64,0,0,0,19.6-3.46C399.34,642.29,483,546,447.86,506.66,441.26,499.28,449.13,503.79,439.33,502.39Z" class="a3801cfe-1047-4a55-8ac4-a83bb5be9f0b"></path><path d="M361.05,680.46a17.32,17.32,0,0,1-8.72-2.34c-35.65-20.65-54.45-47.87-62.49-62.26A18,18,0,0,1,291,596.63c33.88-47,110.72-101.73,148.6-96.35,3.19.46,4.06.2,4.09.19a1.67,1.67,0,0,1,1.8-.2,2.24,2.24,0,0,1,1.39,1.61,14.15,14.15,0,0,0,2.55,3.36c36.12,40.38-46.92,136.62-74.21,168.24l-.63.74A18,18,0,0,1,361.05,680.46ZM435,504.24c-29.94,0-99.47,38-140.49,94.89a13.74,13.74,0,0,0-.92,14.65c7.82,14,26.13,40.51,60.9,60.65a13.47,13.47,0,0,0,16.91-3l.64-.74c26.68-30.92,107.88-125,74.25-162.61a28.79,28.79,0,0,1-2.61-3.3,21.41,21.41,0,0,1-4.63-.28A30.2,30.2,0,0,0,435,504.24Z" class="a3801cfe-1047-4a55-8ac4-a83bb5be9f0b"></path><path d="M625.55,488.78a233.54,233.54,0,0,1,85.33,38.5L700,671.43l20.91,261.9-371.2,4.26s-7.21-165.4,17.07-320c5.58-35.57,34.13-85.33,60.92-110.53h0c28.72-17.34,58.45-25,108.3-24h30.92a245.6,245.6,0,0,1,58.61,5.73" class="f431e451-f73a-4a39-bfa8-c9e210c33715"></path><path d="M349.73,939.73a2.13,2.13,0,0,1-2.13-2c-.07-1.66-6.94-167.39,17.09-320.43,5.47-34.83,33.09-85,61.57-111.76a2.42,2.42,0,0,1,.36-.27c30.54-18.44,61.17-25.27,109.44-24.32h30.86A249.13,249.13,0,0,1,626,486.7h0a236.29,236.29,0,0,1,86.11,38.85,2.16,2.16,0,0,1,.89,1.89L702.14,671.59l20.92,261.56a2.11,2.11,0,0,1-.55,1.61,2.14,2.14,0,0,1-1.55.7l-371.2,4.27Zm79.29-431c-27.37,25.84-54.87,75.76-60.11,109.15-22.52,143.38-17.84,297.94-17.13,317.52l366.84-4.22L697.89,671.6l10.78-143.28a231.83,231.83,0,0,0-83.58-37.46A245.4,245.4,0,0,0,567,485.18H536C488.73,484.25,458.73,490.88,429,508.77Z" class="a3801cfe-1047-4a55-8ac4-a83bb5be9f0b"></path><path d="M349.73,668.79l-51.2-46.93S213.2,737.06,264.4,778.12c38,30.44,166.4-79.46,166.4-79.46l-38.4-44.27" class="f431e451-f73a-4a39-bfa8-c9e210c33715"></path><path d="M281.74,785.52c-7.35,0-13.71-1.75-18.67-5.73-21.78-17.46-22.73-50.68-2.76-96.06,14.86-33.76,36.29-62.85,36.51-63.14l1.41-1.9,52.94,48.53-2.88,3.15-49.43-45.32c-10.72,15.14-78.6,114.94-33.13,151.41,33.91,27.19,147-65.48,162-78l-37-42.63L394,653l39.81,45.89-1.63,1.4C427.56,704.24,331.91,785.51,281.74,785.52Z" class="a3801cfe-1047-4a55-8ac4-a83bb5be9f0b"></path><path d="M292.76,597.88a15.78,15.78,0,0,0-1.05,16.94c7.73,13.85,26.29,40.95,61.69,61.46a15.64,15.64,0,0,0,19.6-3.46" class="a3801cfe-1047-4a55-8ac4-a83bb5be9f0b"></path><path d="M361.05,680.46a17.32,17.32,0,0,1-8.72-2.34c-35.65-20.65-54.45-47.87-62.49-62.26A18,18,0,0,1,291,596.63a2.13,2.13,0,0,1,3.46,2.5,13.74,13.74,0,0,0-.92,14.65c7.82,14,26.13,40.51,60.9,60.65a13.48,13.48,0,0,0,16.91-3,2.14,2.14,0,0,1,3.24,2.79A18,18,0,0,1,361.05,680.46Z" class="a3801cfe-1047-4a55-8ac4-a83bb5be9f0b"></path><path d="M503.37,442s4.65,40.79-18.62,50.2c0,0,46.55,34.51,102.4-3.14,0,0-23.27-12.55-18.62-59.61Z" class="f431e451-f73a-4a39-bfa8-c9e210c33715"></path><path d="M533.32,508.68c-29.42,0-49.53-14.53-49.84-14.76a2.14,2.14,0,0,1,.47-3.69c21.49-8.69,17.34-47.59,17.3-48a2.12,2.12,0,0,1,1.72-2.33l65.16-12.55a2.11,2.11,0,0,1,1.84.52,2.13,2.13,0,0,1,.69,1.78c-4.44,44.87,17.29,57.41,17.51,57.53a2.16,2.16,0,0,1,1.11,1.77,2.13,2.13,0,0,1-.94,1.87C568.36,504.31,549.44,508.68,533.32,508.68Zm-44.27-16.23a87.43,87.43,0,0,0,26.58,10.26c23.14,4.82,45.91.22,67.72-13.7-6.16-5-20-20.41-17.19-56.92l-60.49,11.65C506.27,451.81,507.18,481.7,489.05,492.45Z" class="a3801cfe-1047-4a55-8ac4-a83bb5be9f0b"></path><path d="M443.14,318.62H469.2a0,0,0,0,1,0,0v49.72a0,0,0,0,1,0,0H436a21.27,21.27,0,0,1-21.27-21.27v0A28.45,28.45,0,0,1,443.14,318.62Z" class="f431e451-f73a-4a39-bfa8-c9e210c33715"></path><path d="M469.2,370.47H438.38a25.85,25.85,0,0,1-25.82-25.82v-2.34a25.85,25.85,0,0,1,25.82-25.82H469.2a2.13,2.13,0,0,1,2.13,2.13v49.71A2.13,2.13,0,0,1,469.2,370.47Zm-30.82-49.72a21.58,21.58,0,0,0-21.56,21.56v2.34a21.58,21.58,0,0,0,21.56,21.55h28.69V320.75Z" class="a3801cfe-1047-4a55-8ac4-a83bb5be9f0b"></path><path transform="translate(1245.98 686.95) rotate(180)" d="M619.11,318.62h31.13a0,0,0,0,1,0,0v49.72a0,0,0,0,1,0,0H622.08A26.34,26.34,0,0,1,595.74,342v0A23.38,23.38,0,0,1,619.11,318.62Z" class="f431e451-f73a-4a39-bfa8-c9e210c33715"></path><path d="M626.55,370.47H595.74a2.14,2.14,0,0,1-2.14-2.14V318.62a2.13,2.13,0,0,1,2.14-2.13h30.81a25.85,25.85,0,0,1,25.83,25.82v2.34A25.86,25.86,0,0,1,626.55,370.47Zm-28.68-4.27h28.68a21.58,21.58,0,0,0,21.56-21.55v-2.34a21.58,21.58,0,0,0-21.56-21.56H597.87Z" class="a3801cfe-1047-4a55-8ac4-a83bb5be9f0b"></path><path d="M428.77,340.53s15.4-3.36,20.2,6.45" class="f431e451-f73a-4a39-bfa8-c9e210c33715"></path><path d="M449,349.11a2.14,2.14,0,0,1-1.92-1.19c-4-8.18-17.7-5.33-17.83-5.3a2.13,2.13,0,0,1-.91-4.17c.7-.16,17.1-3.59,22.58,7.59a2.15,2.15,0,0,1-1,2.86A2.22,2.22,0,0,1,449,349.11Z" class="a3801cfe-1047-4a55-8ac4-a83bb5be9f0b"></path><path d="M511.21,236.16h38.67A66.08,66.08,0,0,1,616,302.24v63.14a85.42,85.42,0,0,1-85.42,85.42h0a85.42,85.42,0,0,1-85.42-85.42V302.24a66.08,66.08,0,0,1,66.08-66.08Z" class="f431e451-f73a-4a39-bfa8-c9e210c33715"></path><path d="M533.46,452.93h-5.83A84.74,84.74,0,0,1,443,368.29V236.16a2.13,2.13,0,0,1,2.14-2.13H616a2.13,2.13,0,0,1,2.13,2.13V368.29A84.73,84.73,0,0,1,533.46,452.93Zm-86.2-214.64v130a80.46,80.46,0,0,0,80.37,80.37h5.83a80.46,80.46,0,0,0,80.37-80.37v-130Z" class="a3801cfe-1047-4a55-8ac4-a83bb5be9f0b"></path><path d="M636.88,206.28c.07-.77.13-1.55.13-2.34,0-14.83-12.82-26.86-28.63-26.86a30.38,30.38,0,0,0-11.06,2.08c-8.69-8.45-21.73-13.83-36.33-13.83-15,0-28.41,5.72-37.09,14.62a42.42,42.42,0,0,0-28.76-11c-16.92,0-31.45,9.59-37.77,23.29a31.18,31.18,0,0,0-12.24-2.51c-16.15,0-29.53,12.35-32.11,28.55-11.58,5.22-19.52,15.79-19.52,28,0,14.06,10.5,26,25,30a35.35,35.35,0,0,0,62.85,6.65,39.67,39.67,0,0,0,21.19,6.16,40.07,40.07,0,0,0,27.76-11.27c7.51,10.78,19.42,17.78,32.87,17.78a39.33,39.33,0,0,0,27.72-11.66,50.23,50.23,0,0,0,25.27,6.77c26.4,0,47.8-19.9,47.8-44.43C664,228.64,652.88,213.46,636.88,206.28Z" class="a3801cfe-1047-4a55-8ac4-a83bb5be9f0b"></path><path d="M636.18,340.53S620.78,337.17,616,347" class="f431e451-f73a-4a39-bfa8-c9e210c33715"></path><path d="M616,349.11a2.21,2.21,0,0,1-.93-.21,2.14,2.14,0,0,1-1-2.86c5.48-11.18,21.88-7.75,22.57-7.59a2.13,2.13,0,0,1-.91,4.17c-.13,0-13.83-2.88-17.83,5.3A2.14,2.14,0,0,1,616,349.11Z" class="a3801cfe-1047-4a55-8ac4-a83bb5be9f0b"></path><path d="M463.88,376.53h-.12l-20.28-1.11a2.14,2.14,0,0,1-2-2.25,2,2,0,0,1,2.25-2L464,372.26a2.14,2.14,0,0,1-.11,4.27Z" class="a3801cfe-1047-4a55-8ac4-a83bb5be9f0b"></path><path d="M584.4,369.1a2.13,2.13,0,0,1-.12-4.26l20.28-1.11a2,2,0,0,1,2.25,2,2.14,2.14,0,0,1-2,2.25l-20.27,1.11Z" class="a3801cfe-1047-4a55-8ac4-a83bb5be9f0b"></path><path d="M484.13,372.26A29.87,29.87,0,1,1,514,342.39,29.9,29.9,0,0,1,484.13,372.26Zm0-55.47a25.6,25.6,0,1,0,25.6,25.6A25.64,25.64,0,0,0,484.13,316.79Z" class="a3801cfe-1047-4a55-8ac4-a83bb5be9f0b"></path><path d="M561.92,372.26a29.87,29.87,0,1,1,29.87-29.87A29.9,29.9,0,0,1,561.92,372.26Zm0-55.47a25.6,25.6,0,1,0,25.6,25.6A25.64,25.64,0,0,0,561.92,316.79Z" class="a3801cfe-1047-4a55-8ac4-a83bb5be9f0b"></path><path d="M511.87,346.66a2.13,2.13,0,0,1-1.19-3.91c4.9-3.27,16.42-7.44,24.94.19a2.14,2.14,0,0,1-2.85,3.18c-8.19-7.35-19.6.11-19.72.18A2.15,2.15,0,0,1,511.87,346.66Z" class="a3801cfe-1047-4a55-8ac4-a83bb5be9f0b"></path><path d="M638.35,275.86s-12.8,34.13-8.53,42.67c0,0-4.27-4.27-12.8,0V288.66Z" class="a3801cfe-1047-4a55-8ac4-a83bb5be9f0b"></path><path d="M425,275.86s12.8,34.13,8.53,42.67c0,0,4.27-4.27,12.8,0V288.66Z" class="a3801cfe-1047-4a55-8ac4-a83bb5be9f0b"></path><path d="M468.28,244.73c-10,0-17.14-2.52-21.21-7.52-6-7.36-2.88-17.07-2.74-17.48a2.11,2.11,0,0,1,2.68-1.36,2.13,2.13,0,0,1,1.37,2.68c0,.08-2.49,8,2,13.49,4.07,5,12.92,6.88,25.58,5.46a2.14,2.14,0,0,1,.48,4.25A75.12,75.12,0,0,1,468.28,244.73Z" class="bf8eb16d-9ce0-43c4-8052-b43ee4a0510a"></path><path d="M510.69,248.77c-5.57,0-8.9-.24-9-.25a2.13,2.13,0,1,1,.32-4.25c.56,0,55.31,3.9,96.88-21a2.13,2.13,0,0,1,2.19,3.66C568.55,246.39,528.35,248.77,510.69,248.77Z" class="bf8eb16d-9ce0-43c4-8052-b43ee4a0510a"></path><path d="M538,501.21c-26.79,1.07-41.26-4.78-49-15.88-1.9,2.85-12.94,1.17-12.8,4.26.68,15.17,29.18,29.52,61.75,28.22s58.39-17.32,57.71-32.48c-.08-2-6.07-2.06-9.89-2.92a5.11,5.11,0,0,0-5.17,1.78C573.11,493.68,561.39,500.28,538,501.21Z" class="a3801cfe-1047-4a55-8ac4-a83bb5be9f0b"></path><path d="M460.67,309.13a2.14,2.14,0,0,1-1.78-3.32c3.27-4.89,12.45-13.15,23.78-9.37a2.13,2.13,0,0,1-1.35,4.05c-11.09-3.69-18.57,7.23-18.88,7.69A2.13,2.13,0,0,1,460.67,309.13Z" class="a3801cfe-1047-4a55-8ac4-a83bb5be9f0b"></path><path d="M588.67,310.65A2.14,2.14,0,0,1,586.6,309c0-.06-1.66-6.26-6.56-8.49-3.14-1.44-7.1-1-11.75,1.34a2.14,2.14,0,1,1-1.91-3.82c5.89-2.94,11.1-3.4,15.47-1.39,6.77,3.11,8.8,11,8.89,11.32a2.13,2.13,0,0,1-1.55,2.58A2.4,2.4,0,0,1,588.67,310.65Z" class="a3801cfe-1047-4a55-8ac4-a83bb5be9f0b"></path><path d="M456.4,338.13a2.14,2.14,0,0,1-1.71-.86l-12.8-17.07a2.13,2.13,0,0,1,3.42-2.55l12.8,17.06a2.14,2.14,0,0,1-1.71,3.42Z" class="a3801cfe-1047-4a55-8ac4-a83bb5be9f0b"></path><path d="M588.67,333.86a2.13,2.13,0,0,1-.78-4.12l32.62-12.8a2.13,2.13,0,0,1,1.56,4l-32.63,12.8A2.11,2.11,0,0,1,588.67,333.86Z" class="a3801cfe-1047-4a55-8ac4-a83bb5be9f0b"></path><path d="M819.52,825.23a2.14,2.14,0,0,1-1.18-3.92c13-8.61,14.6-25.26,14.61-25.42a2.16,2.16,0,0,1,2.31-1.95,2.13,2.13,0,0,1,1.94,2.31c-.06.76-1.74,18.85-16.5,28.62A2.12,2.12,0,0,1,819.52,825.23Z" class="b0dc9b45-cb09-419b-aa21-33af78313276"></path><path d="M827.27,839.73a2.14,2.14,0,0,1-.95-4.05c29.19-14.42,22.43-43.57,22.36-43.86a2.13,2.13,0,0,1,4.14-1c.08.33,7.62,32.78-24.61,48.71A2.09,2.09,0,0,1,827.27,839.73Z" class="b0dc9b45-cb09-419b-aa21-33af78313276"></path><circle r="6.23" cy="351.1" cx="479.69" class="a3801cfe-1047-4a55-8ac4-a83bb5be9f0b"></circle><circle r="6.23" cy="351.1" cx="560.76" class="a3801cfe-1047-4a55-8ac4-a83bb5be9f0b"></circle><path d="M288,406.68c-4.78,0-9.18-3.36-13.08-10-3.08-5.25-6.24-8-9.13-8.08h-.07c-3.63,0-6.73,4.29-7.89,6.15a29.22,29.22,0,0,1-6.45,7.6c-7.46,5.85-15.36,4.84-21.69-2.76-3.14-3.77-6.14-5.68-8.92-5.68h0c-2.75,0-4.93,1.91-6.27,3.52-3,3.58-5.88,5.9-8.88,7.09-4.3,1.72-10.76,2.36-17.06-4.22-2.5-2.61-5.06-3.85-7.58-3.58-4.86.45-8.6,6-8.63,6a2.14,2.14,0,0,1-3.58-2.34c.2-.29,4.85-7.29,11.82-7.94,3.87-.36,7.61,1.28,11.06,4.88,3.73,3.91,7.91,5,12.39,3.21,2.32-.93,4.67-2.84,7.18-5.86,1.93-2.31,5.14-5.06,9.55-5.06h0c4.1,0,8.21,2.43,12.19,7.22,4.94,5.92,10.1,6.6,15.79,2.14a25.53,25.53,0,0,0,5.46-6.52c1.94-3.08,6.13-8.26,11.64-8.15,4.52.07,8.81,3.49,12.75,10.19,3.07,5.23,6.24,7.88,9.4,7.88H288c4.58-.05,8.75-5.74,10-7.93a2.14,2.14,0,1,1,3.73,2.08c-.23.41-5.68,10-13.65,10.12Z" class="a3801cfe-1047-4a55-8ac4-a83bb5be9f0b"></path><path d="M288,432c-4.78,0-9.18-3.36-13.08-10-3.08-5.24-6.24-8-9.13-8.08h-.07c-3.63,0-6.73,4.3-7.89,6.16a29.39,29.39,0,0,1-6.45,7.6c-7.46,5.85-15.36,4.84-21.69-2.77-3.14-3.77-6.14-5.68-8.92-5.68h0c-2.75,0-4.93,1.92-6.27,3.52-3,3.58-5.88,5.9-8.88,7.09-4.3,1.72-10.76,2.37-17.06-4.21C186,423,183.47,421.77,181,422c-4.86.45-8.6,6-8.63,6a2.14,2.14,0,0,1-3.58-2.33c.2-.3,4.85-7.3,11.82-7.95,3.87-.36,7.61,1.28,11.06,4.89,3.73,3.91,7.91,5,12.39,3.2,2.32-.93,4.67-2.84,7.18-5.85,1.93-2.31,5.14-5.06,9.55-5.06h0c4.1,0,8.21,2.43,12.19,7.21,4.94,5.92,10.1,6.61,15.79,2.14a25.28,25.28,0,0,0,5.46-6.51c1.94-3.08,6.13-8.12,11.64-8.15,4.52.06,8.81,3.49,12.75,10.18,3.07,5.23,6.24,7.89,9.4,7.89H288c4.58-.06,8.75-5.75,10-7.93a2.13,2.13,0,1,1,3.73,2.07c-.23.41-5.68,10-13.65,10.12Z" class="a3801cfe-1047-4a55-8ac4-a83bb5be9f0b"></path><path d="M584.4,643.19s34.13-17.06,51.2,119.47-42.67,128-42.67,128l-179.2,4.27S482,758.39,396.66,698.66Z" class="a3801cfe-1047-4a55-8ac4-a83bb5be9f0b"></path><path d="M410.24,897.14l1.58-3.17c.68-1.35,66.46-135.58-16.38-193.56l-3.62-2.54,191.85-56.69c1.08-.45,5.94-2.11,12.45,1.36,13,7,30.79,33.42,41.6,119.85,9.37,75-4.67,106.51-18.1,119.71-12.75,12.54-26.42,10.75-27,10.67Zm-8.83-197.66c73.51,56.07,25.12,172.54,15.72,193.23l175.75-4.18c.84.08,12.64,1.53,23.86-9.58,12.68-12.55,25.88-42.88,16.74-116-11.07-88.6-29.28-111-39.14-116.48-5.35-3-8.87-1.4-9-1.33l-.32.13Z" class="a3801cfe-1047-4a55-8ac4-a83bb5be9f0b"></path><path d="M721.37,760.58,600.58,770.2c-5.86.41-21.32.32-23.6-5.09-2.81-6.7-12.59-27.42-30.29-31.24,0,0-21.23-26.92-29.25-21.75,0,0-15.61,5.3,14.13,31.88a1.19,1.19,0,0,1-1,2.07c-9.14-1.61-25.4-5.73-38.24-17.77-16.42-9.72-14.35,9.25-14.35,9.25-13.36,1.85-7.17,10.63-7.17,10.63-5.75,7.61,5.64,21,5.64,21,3.21,3.33,0,9.54,7.57,15.29,33.07,25,68.66,36.55,103.46,38.36,60.52,7,125,5.19,165.08,2.65,1.31-.08,2.6-.21,3.89-.37,29-3.71,50-29.48,50-58.68,0-22.75-3.87-60.48-25.81-93.38-34.13-51.2-81.06,29.87-81.06,29.87Z" class="f431e451-f73a-4a39-bfa8-c9e210c33715"></path><path d="M681.33,829.89c-29.21,0-62.12-1.21-94.09-4.93-37.88-2-73.08-15-104.5-38.77-5.34-4.05-6-8.46-6.56-11.69-.29-1.87-.51-3.06-1.26-3.83-.57-.67-11.47-13.67-6.59-22.57a8.57,8.57,0,0,1-.51-7.06c1.13-2.6,3.8-4.37,7.95-5.26,0-3.07.49-8.67,4.4-11.19,3.19-2.06,7.66-1.44,13.25,1.88l.37.28c8.51,8,20.17,13.67,33.88,16.58C515.54,732,510.08,723,511.41,716.43a8.64,8.64,0,0,1,5.09-6.24c9-5.24,26.78,16,31.4,21.77,17.54,4.28,27.54,24,31.05,32.32,1.29,3.07,12.13,4.45,21.48,3.79l117.94-9.39-21.13-55.95.51-.87c1.11-1.92,27.52-47,56.09-47.88,10.9-.34,20.46,5.68,28.6,17.9,21.66,32.49,26.18,69.36,26.17,94.56,0,30.88-22.33,57-51.88,60.79q-2,.25-4,.39C735.55,828.7,710.25,829.88,681.33,829.89ZM484.44,727.66a3.57,3.57,0,0,0-2,.51c-2.55,1.64-2.56,7.3-2.36,9.15l.22,2.06-2,.28c-3.58.5-5.91,1.59-6.55,3.08-.79,1.8.8,4.18.82,4.21l.9,1.27-.94,1.25c-3.86,5.1,2.71,15,5.57,18.34,1.62,1.67,2,3.88,2.31,6,.46,2.92.94,5.95,4.92,8.95,30.72,23.24,65.13,36,102.28,37.93,63.42,7.37,130.48,4.83,164.84,2.65,1.25-.08,2.51-.2,3.75-.36,27.43-3.51,48.13-27.83,48.15-56.56,0-24.61-4.38-60.59-25.45-92.2-7.27-10.9-15.64-16.3-24.92-16-24.19.76-48.23,38.66-52,44.89l22.41,59.35-123.63,9.84c-2.32.16-22.47,1.32-25.72-6.4s-12.73-26.51-28.78-30l-.75-.17-.47-.6c-9.65-12.21-22.48-23.8-26.42-21.28l-.47.23a4.33,4.33,0,0,0-2.55,3.21c-.58,3,.92,10.33,17.41,25.06a3.32,3.32,0,0,1,.78,3.94,3.28,3.28,0,0,1-3.56,1.82c-15.85-2.79-29.38-9.06-39.16-18.15C489,728.83,486.48,727.66,484.44,727.66Z" class="a3801cfe-1047-4a55-8ac4-a83bb5be9f0b"></path><path d="M515.46,766.3a2.3,2.3,0,0,1-.45,0c-18.19-3.93-37.8-26.35-38.63-27.3a2.14,2.14,0,0,1,3.23-2.8c.19.23,19.51,22.3,36.3,25.93a2.13,2.13,0,0,1-.45,4.22Z" class="a3801cfe-1047-4a55-8ac4-a83bb5be9f0b"></path><path d="M512.91,778.09a1.73,1.73,0,0,1-.45-.05c-18.09-3.9-42.12-27.34-43.14-28.34a2.14,2.14,0,0,1,3-3.05c.23.24,24.16,23.58,41,27.22a2.13,2.13,0,0,1-.45,4.22Z" class="a3801cfe-1047-4a55-8ac4-a83bb5be9f0b"></path><path d="M510.36,789.89a2.38,2.38,0,0,1-.45,0A83.19,83.19,0,0,1,475,770.77a2.14,2.14,0,1,1,2.88-3.16,80.24,80.24,0,0,0,32.92,18.06,2.14,2.14,0,0,1-.46,4.22Z" class="a3801cfe-1047-4a55-8ac4-a83bb5be9f0b"></path><line y2="152.53" x2="301.43" y1="191.09" x1="353.73" class="b797210b-7cf1-4186-97b4-7b9c2ba3e86d"></line><path d="M353.74,193.22a2.12,2.12,0,0,1-1.27-.41l-52.31-38.57a2.13,2.13,0,1,1,2.53-3.43L355,189.37a2.13,2.13,0,0,1-1.26,3.85Z" class="a3801cfe-1047-4a55-8ac4-a83bb5be9f0b"></path><line y2="217.24" x2="334.45" y1="212.44" x1="292.06" class="b797210b-7cf1-4186-97b4-7b9c2ba3e86d"></line><path d="M334.46,219.38l-.25,0-42.39-4.8a2.13,2.13,0,1,1,.48-4.24l42.39,4.81a2.13,2.13,0,0,1-.23,4.25Z" class="a3801cfe-1047-4a55-8ac4-a83bb5be9f0b"></path><line y2="243.64" x2="340.05" y1="260.67" x1="285.73" class="b797210b-7cf1-4186-97b4-7b9c2ba3e86d"></line><path d="M285.73,262.81a2.13,2.13,0,0,1-.64-4.17l54.32-17a2.13,2.13,0,1,1,1.28,4.07l-54.32,17A2,2,0,0,1,285.73,262.81Z" class="a3801cfe-1047-4a55-8ac4-a83bb5be9f0b"></path><rect transform="translate(-5.47 2.89) rotate(-0.34)" height="4.27" width="793.61" y="933.33" x="93.73" class="a3801cfe-1047-4a55-8ac4-a83bb5be9f0b"></rect><path d="M797.73,687.27l-101,52.29a16.7,16.7,0,0,1-23-8.86l-27.54-70.51c-13.95-35.72-14.34-75.64.49-111,10-23.75,25.89-42.19,51.75-39.9,64.74,5.73,99.44,119.08,108.21,159.5A16.7,16.7,0,0,1,797.73,687.27Z" class="a3801cfe-1047-4a55-8ac4-a83bb5be9f0b"></path><path d="M255.87,538.66a2.14,2.14,0,0,1-1.78-3.32c17.33-26,51-34.66,52.46-35a2.13,2.13,0,1,1,1,4.14c-.33.09-33.54,8.66-49.94,33.25A2.12,2.12,0,0,1,255.87,538.66Z" class="a3801cfe-1047-4a55-8ac4-a83bb5be9f0b"></path><path d="M255.87,560a2.08,2.08,0,0,1-1.19-.36,2.13,2.13,0,0,1-.59-3c17.33-26,51-34.67,52.46-35a2.13,2.13,0,1,1,1,4.13c-.33.09-33.54,8.66-49.94,33.25A2.12,2.12,0,0,1,255.87,560Z" class="a3801cfe-1047-4a55-8ac4-a83bb5be9f0b"></path><path d="M414.21,619.73s-25.6,21.33-21.33,38.4,55.46,8.53,55.46,8.53l21.34-25.6Z" class="f431e451-f73a-4a39-bfa8-c9e210c33715"></path><path d="M422.39,671c-14.15,0-29.1-2.45-31.58-12.36-4.54-18.15,20.95-39.65,22-40.55a2.16,2.16,0,0,1,2.14-.36l55.46,21.34a2.14,2.14,0,0,1,.88,3.36L450,668a2.08,2.08,0,0,1-1.29.73A173.6,173.6,0,0,1,422.39,671Zm-7.75-48.82c-4.45,4-23.14,21.63-19.69,35.43,3,12.19,38,9.33,52.27,7.07L466.13,642Z" class="a3801cfe-1047-4a55-8ac4-a83bb5be9f0b"></path><path d="M336.93,728.53S494.8,694.39,537.46,720c0,0,0-72.53,46.94-76.8,0,0-137.8,3.45-202.9,7.24A44,44,0,0,0,343,678.33C338.47,690.05,335.35,706.35,336.93,728.53Z" class="f431e451-f73a-4a39-bfa8-c9e210c33715"></path><path d="M336.93,730.66a2.12,2.12,0,0,1-1.28-.43,2.17,2.17,0,0,1-.85-1.55c-1.4-19.66.69-36.86,6.23-51.13a46.19,46.19,0,0,1,40.34-29.25c64.4-3.75,201.6-7.21,203-7.24h.06a2.13,2.13,0,0,1,.19,4.26c-44.48,4-45,74-45,74.67a2.13,2.13,0,0,1-3.23,1.83c-41.48-24.87-197.42,8.45-199,8.79A2.3,2.3,0,0,1,336.93,730.66Zm231.18-84.91c-38.5,1-135.43,3.84-186.49,6.81A41.91,41.91,0,0,0,345,679.1c-5.08,13.08-7.13,28.82-6.11,46.83,20.33-4.25,152.55-30.74,196.55-9.44C536.12,703.82,540.44,660.43,568.11,645.75Z" class="a3801cfe-1047-4a55-8ac4-a83bb5be9f0b"></path><path d="M413.73,894.93s-21.33,0-17.07-34.14l187.74-4.26s4.26,29.86,12.8,34.13Z" class="f431e451-f73a-4a39-bfa8-c9e210c33715"></path><path d="M413.73,897.06a19,19,0,0,1-13.25-6.52c-5.63-6.37-7.62-16.47-5.93-30a2.13,2.13,0,0,1,2.07-1.87l187.73-4.27a2.17,2.17,0,0,1,2.16,1.83c1.59,11.12,6.16,29.79,11.64,32.53a2.13,2.13,0,0,1-.9,4l-183.47,4.27Zm-15.16-34.18c-1.15,11.34.57,19.7,5.11,24.84a14.68,14.68,0,0,0,10,5.07l178.38-4.15c-5.56-8-8.58-24.1-9.53-29.94Z" class="a3801cfe-1047-4a55-8ac4-a83bb5be9f0b"></path><path d="M456.4,592s-8.54-8.53-17.07,8.54c0,0-21.33-4.27-21.33,12.8,0,0-12.8-4.27-12.8,8.53s21.33,38.4,21.33,17.07c0,0,8.53,12.8,12.8,0,0,0,8.53,12.8,12.8-4.27,0,0,0,12.8,8.53,8.53S473.46,609.06,456.4,592Z" class="f431e451-f73a-4a39-bfa8-c9e210c33715"></path><path d="M422.57,649.25c-8,0-19.5-17.72-19.5-27.39,0-4.38,1.35-7.58,4-9.5,2.87-2.06,6.52-2,9-1.65a13.33,13.33,0,0,1,4.74-9c5.47-4.49,13.89-4,17.37-3.57,3.36-6.18,7.2-9.66,11.42-10.34a10.19,10.19,0,0,1,8.35,2.63C469.43,602,471.54,618.43,469.67,630c-1.23,7.58-4.24,13.24-8.05,15.15-3.5,1.75-5.91,1.07-7.31.21a7.64,7.64,0,0,1-2.78-3.3,7.08,7.08,0,0,1-4.77,3.57c-2.69.45-5.15-1.11-6.84-2.7-1.33,2.26-3,3.55-5,3.82-2.53.35-4.92-1.09-6.75-2.71a9.49,9.49,0,0,1-.83,2.24A5.25,5.25,0,0,1,422.57,649.25Zm-9.05-34.47a6.74,6.74,0,0,0-4,1.05c-1.48,1.07-2.23,3.1-2.23,6,0,8.94,10.93,23.13,15.24,23.13.22,0,.57,0,1-.76s.86-2.25.86-5.3a2.14,2.14,0,0,1,3.91-1.19c1.37,2,4.26,5,6,4.73,1.05-.14,2.14-1.68,3-4.22a2.14,2.14,0,0,1,1.73-1.44,2.16,2.16,0,0,1,2.06.93c1.09,1.62,3.38,3.93,4.94,3.64.54-.1,2.44-.9,4-7.24a2.14,2.14,0,0,1,4.21.51c0,1.84.57,6,2.29,7,.7.44,1.76.3,3.15-.4,2.51-1.25,4.77-6,5.75-12,1.62-10-.17-25.36-10.56-35.76a5.8,5.8,0,0,0-4.71-1.44c-3,.52-6.13,3.77-8.95,9.41a2.13,2.13,0,0,1-2.32,1.14c-.1,0-10.12-1.93-15.45,2.45-2.25,1.84-3.34,4.54-3.34,8.26a2.13,2.13,0,0,1-.88,1.72,2.09,2.09,0,0,1-1.92.3A13.3,13.3,0,0,0,413.52,614.78Z" class="a3801cfe-1047-4a55-8ac4-a83bb5be9f0b"></path><path d="M461.57,523.73h0a8.48,8.48,0,0,1,8.44,7.58l12,111.88H464.93L453.14,533.11A8.48,8.48,0,0,1,461.57,523.73Z" class="a3801cfe-1047-4a55-8ac4-a83bb5be9f0b"></path><path d="M484.37,645.33H463l-12-112a10.62,10.62,0,1,1,21.11-2.26Zm-17.52-4.27h12.77L467.89,531.53a6.34,6.34,0,0,0-6.32-5.67,6.36,6.36,0,0,0-6.31,7Z" class="a3801cfe-1047-4a55-8ac4-a83bb5be9f0b"></path><path d="M477.73,604.79s12.8,0,12.8,12.8V618c-.2,9.88-14.5,11.56-17.35,2.1C471.35,614,471,607,477.73,604.79Z" class="f431e451-f73a-4a39-bfa8-c9e210c33715"></path><path d="M481.77,628.47a10.8,10.8,0,0,1-10.63-7.79c-3.8-12.6,2.08-16.63,5.92-17.91a2.14,2.14,0,0,1,.67-.11c5.17,0,14.94,3.12,14.94,14.93a10.6,10.6,0,0,1-9.36,10.78A13,13,0,0,1,481.77,628.47Zm-3.71-21.53c-1.82.65-5.8,2.69-2.84,12.51a6.64,6.64,0,0,0,7.51,4.69,6.23,6.23,0,0,0,5.66-6.21C488.4,608,479.88,607,478.06,606.94Z" class="a3801cfe-1047-4a55-8ac4-a83bb5be9f0b"></path><path d="M418,613.33s8.53,15.36,8.53,25.6" class="f431e451-f73a-4a39-bfa8-c9e210c33715"></path><path d="M426.53,641.06a2.13,2.13,0,0,1-2.13-2.13c0-9.57-8.18-24.42-8.27-24.57a2.14,2.14,0,0,1,3.74-2.07c.35.65,8.8,16,8.8,26.64A2.14,2.14,0,0,1,426.53,641.06Z" class="a3801cfe-1047-4a55-8ac4-a83bb5be9f0b"></path><path d="M430.8,609.06a59,59,0,0,1,8.53,29.87" class="f431e451-f73a-4a39-bfa8-c9e210c33715"></path><path d="M439.33,641.06a2.13,2.13,0,0,1-2.13-2.13A57.05,57.05,0,0,0,429,610.24a2.13,2.13,0,1,1,3.55-2.36,60.57,60.57,0,0,1,8.9,31A2.14,2.14,0,0,1,439.33,641.06Z" class="a3801cfe-1047-4a55-8ac4-a83bb5be9f0b"></path><path d="M443.6,604.79s12.8,17.07,8.53,29.87" class="f431e451-f73a-4a39-bfa8-c9e210c33715"></path><path d="M452.13,636.79a2,2,0,0,1-.67-.11,2.13,2.13,0,0,1-1.35-2.7c3.87-11.6-8.09-27.75-8.22-27.91a2.14,2.14,0,0,1,3.42-2.56c.55.74,13.41,18.12,8.85,31.82A2.14,2.14,0,0,1,452.13,636.79Z" class="a3801cfe-1047-4a55-8ac4-a83bb5be9f0b"></path><polygon points="477.73 655.99 482 643.19 464.93 643.19 477.73 655.99" class="a3801cfe-1047-4a55-8ac4-a83bb5be9f0b"></polygon><path d="M477.73,658.13a2.17,2.17,0,0,1-1.51-.63l-12.8-12.8a2.13,2.13,0,0,1,1.51-3.64H482a2.13,2.13,0,0,1,2,2.81l-4.26,12.8a2.15,2.15,0,0,1-1.54,1.4A2.05,2.05,0,0,1,477.73,658.13Zm-7.65-12.8L476.8,652l2.24-6.71Z" class="a3801cfe-1047-4a55-8ac4-a83bb5be9f0b"></path><path d="M799.27,342.09c-4.8,2.88-4.84,7.48-.06,10.45a2.09,2.09,0,0,0,2.16,0c18.36-12.29-5.15-26.69-18-17.91-7.22,4.94-4.87,15.07-1.08,21.46,4.84,8.13,12.35,9.24,20.7,5.26,14.9-7.11,28.77-36,11.39-47.8-8-5.42-19.12-2.84-26.16,3-8.36,6.87-10.8,17.11-8.63,27.41.56,2.68,4.67,1.55,4.11-1.13-2.78-13.21,6-28.87,21.06-27.92,16.33,1,14.39,19.87,9,29.94-3.75,7.09-16.06,20.06-25.19,12.67-5.66-4.57-9.53-19,3.18-20.68a39.07,39.07,0,0,1,7.61,1.06q7.37,11.31,2,7.92c2.35-1.42.21-5.11-2.15-3.69Z" class="a3801cfe-1047-4a55-8ac4-a83bb5be9f0b"></path><path d="M776.4,265.59a2.37,2.37,0,0,1-.52-.06c-1.09-.28-10.71-2.84-12.31-8.6-.5-1.78-.41-4.58,2.79-7.78a2.13,2.13,0,0,1,3,3c-1.4,1.4-2,2.62-1.69,3.62.74,2.66,6.54,4.92,9.24,5.6a2.13,2.13,0,0,1-.52,4.2Z" class="a3801cfe-1047-4a55-8ac4-a83bb5be9f0b"></path><path d="M793.46,265.59a2.14,2.14,0,0,1-2.1-1.78c-.19-1.12-4.37-27.6,14.39-32.29a2.13,2.13,0,1,1,1,4.14c-15,3.75-11.25,27.21-11.21,27.45a2.12,2.12,0,0,1-1.75,2.45Z" class="a3801cfe-1047-4a55-8ac4-a83bb5be9f0b"></path><path d="M840.4,269.86a3,3,0,0,1-.42,0,2.14,2.14,0,0,1-1.67-2.51c.18-.92,4.67-22.46,22.47-31.36a2.14,2.14,0,0,1,1.91,3.82c-15.91,7.95-20.16,28.17-20.2,28.38A2.14,2.14,0,0,1,840.4,269.86Z" class="a3801cfe-1047-4a55-8ac4-a83bb5be9f0b"></path><path d="M912.93,312.53H878.8a2.14,2.14,0,0,1,0-4.27h34.13a2.14,2.14,0,1,1,0,4.27Z" class="a3801cfe-1047-4a55-8ac4-a83bb5be9f0b"></path><path d="M904.4,380.79a2.21,2.21,0,0,1-1-.22c-8.6-4.31-25.22-16.74-25.92-17.27a2.13,2.13,0,1,1,2.56-3.41c.17.12,17,12.73,25.27,16.86a2.13,2.13,0,0,1-1,4Z" class="a3801cfe-1047-4a55-8ac4-a83bb5be9f0b"></path><path d="M861.81,415.63c-11.56,0-18.72-14-19-14.68a2.13,2.13,0,0,1,3.81-1.91c.08.15,7.9,15.36,18.75,11.73a2.13,2.13,0,0,1,1.35,4.05A15.41,15.41,0,0,1,861.81,415.63Z" class="a3801cfe-1047-4a55-8ac4-a83bb5be9f0b"></path><path d="M362.53,688h0a2.13,2.13,0,0,1-2.13-2.13c0-.34.06-8.25,5.52-11.62,3.64-2.25,8.56-1.86,14.63,1.18,15.68,7.84,19.12,4.41,27.41-3.87,8.75-8.75,98.82-5.61,116.79-4.89a2.14,2.14,0,0,1,2,2.22,2,2,0,0,1-2.22,2c-40.89-1.63-107.87-2.09-113.61,3.65-8.66,8.66-13.88,13.89-32.33,4.66-3.2-1.59-7.61-3.12-10.47-1.37-3.43,2.11-3.5,7.95-3.5,8A2.14,2.14,0,0,1,362.53,688Z" class="a3801cfe-1047-4a55-8ac4-a83bb5be9f0b"></path><path d="M525.13,384.62a28.07,28.07,0,0,1-14.45-4.19,2.13,2.13,0,0,1,2.36-3.55c.48.31,11.81,7.61,23.24,0a2.13,2.13,0,0,1,2.37,3.55A24,24,0,0,1,525.13,384.62Z" class="a3801cfe-1047-4a55-8ac4-a83bb5be9f0b"></path></svg>